<?xml version="1.0" standalone="no"?><!DOCTYPE svg PUBLIC "-//W3C//DTD SVG 1.1//EN" "http://www.w3.org/Graphics/SVG/1.1/DTD/svg11.dtd"><svg t="1569054704711" class="icon" viewBox="0 0 1024 1024" version="1.1" xmlns="http://www.w3.org/2000/svg" p-id="4393" xmlns:xlink="http://www.w3.org/1999/xlink" width="16" height="16"><defs><style type="text/css"></style></defs><path d="M319.751976 512.010233c0-13.238512 5.962805-25.51921 16.384156-33.68417l120.57003-94.735641c6.099928-4.814656 14.879895-3.719718 19.666922 2.352581 4.787026 6.085602 3.719718 14.893198-2.352581 19.652596l-120.584356 94.749968c-3.596921 2.831488-5.675256 7.084349-5.675256 11.665691 0 4.568039 2.078335 8.820899 5.66093 11.652388l120.598682 94.742804c6.072299 4.759397 7.139607 13.568017 2.352581 19.666922-2.762927 3.501754-6.865361 5.334495-11.036357 5.334495-3.022847 0-6.058996-0.957815-8.630564-2.981914L336.121805 545.6811C325.714781 537.517163 319.751976 525.235442 319.751976 512.010233zM616.226295 545.6811l120.57003 94.742804c2.571568 2.025123 5.606695 2.981914 8.630564 2.981914 4.157693 0 8.274454-1.832741 11.036357-5.334495 4.787026-6.098905 3.720741-14.906501-2.352581-19.666922l-120.597659-94.742804c-3.583618-2.831488-5.661953-7.084349-5.661953-11.652388 0-4.581342 2.078335-8.834202 5.675256-11.665691l120.584356-94.749968c6.073322-4.759397 7.139607-13.566994 2.352581-19.652596-4.787026-6.072299-13.566994-7.166213-19.666922-2.352581l-120.57003 94.735641c-10.422374 8.16496-16.384156 20.445658-16.384156 33.68417C599.843162 525.235442 605.804944 537.517163 616.226295 545.6811zM231.893976 652.048663c7.740288 0 14.004969-6.263657 14.004969-14.004969L245.898945 385.955282c0-7.740288-6.263657-14.004969-14.004969-14.004969s-14.004969 6.263657-14.004969 14.004969L217.889007 638.044718C217.890031 645.785006 224.153688 652.048663 231.893976 652.048663zM195.131701 828.857555C110.475626 744.228085 63.840492 631.699196 63.840492 511.99693c0-119.695103 46.635133-232.223992 131.292232-316.866764C279.762193 110.473067 392.290059 63.850214 511.985162 63.850214c119.696126 0 232.251621 46.622854 316.881091 131.278929 84.657098 84.642772 131.292232 197.171662 131.292232 316.866764 0 119.702266-46.635133 232.231155-131.292232 316.860624-84.629469 84.656075-197.184965 131.292232-316.881091 131.292232C392.290059 960.148763 279.762193 913.512606 195.131701 828.857555zM91.849406 511.99693c0 112.207571 43.709501 217.70737 123.086339 297.057603 79.350233 79.376839 184.821379 123.086339 297.049416 123.086339s217.727837-43.709501 297.078069-123.086339c79.376839-79.350233 123.086339-184.850032 123.086339-297.057603 0-112.228037-43.709501-217.71351-123.086339-297.077046C729.712999 135.569652 624.213199 91.859128 511.985162 91.859128S294.285978 135.569652 214.935746 214.919884C135.558907 294.28342 91.849406 399.768893 91.849406 511.99693z" p-id="4394"></path></svg>